<?xml version="1.0" encoding="UTF-8" standalone="no"?>
<!DOCTYPE svg PUBLIC "-//W3C//DTD SVG 1.1//EN" "http://www.w3.org/Graphics/SVG/1.1/DTD/svg11.dtd">
<svg width="100%" height="100%" viewBox="0 0 119 100" version="1.1" xmlns="http://www.w3.org/2000/svg" xmlns:xlink="http://www.w3.org/1999/xlink" xml:space="preserve" xmlns:serif="http://www.serif.com/" style="fill-rule:evenodd;clip-rule:evenodd;stroke-linejoin:round;stroke-miterlimit:2;">
    <g transform="matrix(1,0,0,1,-592.828068,-562.943665)">
        <g id="CLC" transform="matrix(0.468,0,0,0.468,509.534227,331.757201)">
            <g transform="matrix(0.724949,0,0,0.724949,98.177696,95.451056)">
                <path d="M252.5,583.3L243.2,578.07C242.37,577.61 241.36,577.64 240.56,578.15L227.35,586.59C227.06,586.78 226.88,587.1 226.89,587.45L226.99,598.94C227,599.59 227.35,600.18 227.91,600.5C233.8,603.83 240.36,607.76 247.57,612.28C248.41,612.81 249.44,613.37 250.67,613.96C253.44,615.31 256.26,615.95 255.85,619.14C255.82,619.39 255.67,619.6 255.46,619.73L227.49,635.88C226.98,636.18 226.66,636.72 226.67,637.31L226.78,649.17C226.79,649.74 227.09,650.26 227.59,650.54L241.24,658.21C241.46,658.33 241.72,658.33 241.93,658.21L284.54,633.61C285.01,633.34 285.59,633.33 286.07,633.6L329.89,658.23C330.42,658.53 331.06,658.52 331.58,658.22L343.81,651.16C344.31,650.87 344.61,650.34 344.61,649.76L344.49,637.43C344.49,637.01 344.27,636.62 343.9,636.4C328.66,627.52 319.93,622.5 317.72,621.34C314.57,619.69 315.02,617.06 318.12,615.58C319.71,614.82 321.9,613.84 323.63,612.77C328.23,609.92 335.08,605.9 344.19,600.7C344.53,600.51 344.74,600.15 344.73,599.76L344.62,587.27C344.61,586.84 344.39,586.43 344.03,586.19L331.56,577.92C330.82,577.44 329.88,577.41 329.12,577.85L319.36,583.48C318.66,583.88 317.79,583.39 317.77,582.59L317.05,559.39C317.04,559.08 316.88,558.8 316.63,558.63L303.92,550.21C302.99,549.59 301.77,549.59 300.84,550.21C298.35,551.86 295.35,553.74 291.84,555.83C288.34,557.92 285.39,558.85 282.22,557.23C281.43,556.83 277.76,554.53 271.21,550.33C270.7,550 270.05,549.99 269.52,550.29L254.63,558.89C254.33,559.06 254.14,559.39 254.14,559.74L254.35,582.2C254.36,583.16 253.33,583.77 252.5,583.3Z" style="fill:none;"/>
            </g>
            <g transform="matrix(0.724949,0,0,0.724949,98.177696,95.451056)">
                <path d="M265.97,675.93L235.21,678.66C234.8,678.7 234.49,679.04 234.5,679.45L235.63,803.13C235.64,803.61 236.05,803.97 236.53,803.92C240.48,803.46 244.13,803.32 247.5,803.49C256.88,803.98 264.23,803.47 272.32,803.45C280.86,803.44 287.45,803.73 294.9,803.11C299.55,802.72 304.15,802.9 308.7,803.65C311.02,804.03 313.47,803.81 316.9,803.83C317.43,803.84 317.87,803.4 317.87,802.87C317.83,797.98 319.36,794.36 325.17,795.19C326.57,795.39 327.73,795.72 328.66,796.18C329.05,796.37 329.5,796.39 329.91,796.24C331.74,795.55 333.61,795.46 335.52,795.99C335.96,796.11 336.39,795.78 336.38,795.33L336.19,774.26C336.18,773.99 335.98,773.77 335.71,773.75C313.54,772.29 291.1,771.78 268.39,772.21C267.8,772.22 267.32,771.75 267.31,771.17L266.44,676.36C266.44,676.1 266.22,675.9 265.97,675.93Z" style="fill:none;"/>
            </g>
            <g transform="matrix(0.724949,0,0,0.724949,98.177696,95.451056)">
                <path d="M230.53,758.46L201.54,761.04C201.15,761.07 200.85,761.41 200.87,761.81C201.08,767.04 200.79,771.2 200,774.27C198.31,780.9 190.58,782.34 184.73,783.24C175.2,784.7 165.72,786.06 156.27,787.32C147.78,788.45 138.78,789.22 137.79,777.75C136.74,765.61 136.64,753.93 137.47,742.72C138,735.67 139.36,730.22 145.31,726.56C148.05,724.87 151.3,723.38 155.07,722.08C161.1,720 167.23,718.2 173.44,716.67C180.02,715.05 187.88,713.12 194.51,714.28C199.05,715.08 198.69,723.12 198.76,726.71C198.77,727.11 199.13,727.41 199.53,727.35L228.62,722.94C228.72,722.93 228.79,722.84 228.8,722.74C228.91,715.61 228.62,708.95 227.93,702.76C226.67,691.46 222.54,682.04 209.66,681.09C205.65,680.8 201.68,681.03 197.74,681.79C176.11,685.96 155.59,693.93 135.4,703.45C124.3,708.69 115.78,717.76 112.21,729.91C111.25,733.18 110.67,738.01 110.47,744.39C109.82,764.73 109.98,781.68 110.93,795.24C112.35,815.5 126.67,816.44 143.01,815.57C153.41,815.01 164.58,814.2 176.51,813.14C176.93,813.1 177.24,812.74 177.23,812.32C177.15,809.87 177.6,807.74 180.42,807.49C183.15,807.24 185.19,807.21 186.55,807.38C187.4,807.49 188.05,808.17 188.13,809.02L188.34,811.36C188.37,811.71 188.67,811.96 189.02,811.93L198.43,811.09C198.76,811.07 199.04,810.86 199.18,810.56C200.15,808.38 201.62,806.84 203.58,805.93C203.85,805.8 204.12,805.71 204.41,805.66C208.78,804.81 213.54,804.41 218.71,804.46C219.59,804.47 220.44,804.17 221.13,803.62C228.72,797.5 230.84,787.9 231.1,778.49C231.24,773.08 231.15,766.49 230.83,758.72C230.82,758.56 230.68,758.44 230.53,758.46Z" style="fill:none;"/>
            </g>
            <g transform="matrix(0.724949,0,0,0.724949,98.177696,95.451056)">
                <path d="M457.54,751.55C457.83,744.28 457.54,737.9 456.67,732.4C454.79,720.67 446.46,711.21 437.02,705.33C435.17,704.18 432.36,702.81 428.59,701.23C421.78,698.38 414.42,694.83 406.95,692.29C395.78,688.5 385.05,685.53 374.76,683.36C369.51,682.26 362.32,681.62 357.02,682.29C345.09,683.79 341.31,693.76 340.19,704.23C339.51,710.63 339.1,719.47 338.95,730.75C338.73,747.12 338.72,761.79 338.93,774.77C339.1,785.21 340.59,795.93 349.13,803.34C350.55,804.57 351.79,805.22 352.84,805.27C358.56,805.54 361.91,805.67 362.88,805.68C363.62,805.69 364.35,805.8 365.06,806.03L366.66,806.54C367.03,806.65 367.42,806.63 367.78,806.49C371.32,805.01 376.75,805.69 380.58,806.1C385.79,806.65 390.58,807.07 391.95,812.4C392.06,812.82 392.41,813.12 392.83,813.17C407.45,814.79 420.74,815.8 432.69,816.19C434.32,816.24 436.51,816.16 439.25,815.93C448.84,815.13 456.35,812.25 458.37,801.87C459.46,796.29 459.69,789.22 459.06,780.67C459.04,780.32 458.8,780.03 458.46,779.94L431.09,772.69C430.76,772.6 430.43,772.84 430.42,773.19C430.35,777.62 430.7,786.73 425.67,787.68C422.28,788.32 418.56,788.36 414.5,787.8C405.46,786.56 396.46,785.29 387.51,783.98C383.17,783.35 379.36,782.42 376.08,781.21C366.96,777.83 366.86,767.34 366.83,758.75C366.8,748.56 366.66,735.59 368.48,723.75C369.36,718.06 371.53,713.56 378.26,713.86C380.87,713.98 383.16,714.24 385.12,714.64C397.23,717.13 410.53,720.49 421.42,726.18C426.29,728.73 428.61,730.54 429.1,735.69C429.31,737.9 429.4,739.76 429.36,741.29C429.35,741.45 429.45,741.6 429.6,741.66L456.96,751.93C457.23,752.03 457.53,751.84 457.54,751.55Z" style="fill:none;"/>
            </g>
            <g transform="matrix(0.724949,0,0,0.724949,98.177696,95.451056)">
                <path d="M326.45,801.86C330.12,803.4 334.33,804.89 334.23,798.68C334.22,798.32 333.97,798 333.62,797.91C332.44,797.62 331.56,798 330.98,799.03C330.8,799.36 330.42,799.52 330.06,799.43C329.91,799.39 329.23,799.12 328.01,798.61C324.34,797.07 320.13,795.57 320.23,801.78C320.23,802.15 320.48,802.47 320.84,802.56C322.02,802.84 322.9,802.47 323.48,801.44C323.66,801.11 324.04,800.95 324.4,801.04C324.54,801.07 325.23,801.35 326.45,801.86Z" style="fill:none;"/>
            </g>
            <g transform="matrix(0.724949,0,0,0.724949,98.177696,95.451056)">
                <path d="M305.4,823.72C306.52,827.82 297.28,826.69 294.94,826.48C294.03,826.4 293.29,825.72 293.12,824.82C292.47,821.33 292.53,817.64 293.28,813.75C293.34,813.4 293.56,813.09 293.87,812.91C294.58,812.5 295.54,812.3 296.76,812.29C300.83,812.27 303.18,812.36 303.79,812.56C304.06,812.65 304.31,812.8 304.52,812.99C304.97,813.4 305.15,813.95 305.07,814.63C305.01,815.22 305.46,815.74 306.05,815.76L310.25,815.9C310.92,815.92 311.47,815.38 311.46,814.71C311.37,810.9 311.07,806.52 307.41,805.84C303.62,805.13 298.64,805.49 292.93,805.59C286.08,805.71 286.95,812.89 286.89,817.7C286.79,825.41 285.08,834.84 296.48,833.51C296.8,833.47 297.07,833.72 297.06,834.04L296.94,837.66C296.93,838.01 297.16,838.33 297.5,838.42C297.79,838.5 298.13,838.51 298.51,838.44C299.9,838.18 300.86,839.82 300.02,841.04C299.67,841.55 298.9,841.73 297.72,841.56C297.34,841.5 296.99,841.79 296.98,842.18L296.93,843.7C296.91,844.14 297.26,844.5 297.7,844.49L301.93,844.46C302.72,844.45 303.35,843.81 303.34,843.02L303.28,836.6C303.27,835.95 302.76,835.42 302.11,835.4L299.57,835.32C299.21,835.31 298.92,835.02 298.92,834.66L298.92,834.31C298.91,833.86 299.28,833.49 299.73,833.5C305,833.59 311.28,834.11 311.68,827.5C311.81,825.49 311.89,824.22 311.92,823.69C311.97,822.96 311.39,822.34 310.66,822.35L306.41,822.39C305.72,822.4 305.22,823.05 305.4,823.72Z" style="fill:none;"/>
            </g>
            <g transform="matrix(0.724949,0,0,0.724949,98.177696,95.451056)">
                <path d="M254.18,823.09L249.64,823.13C249.12,823.14 248.72,823.6 248.8,824.12C249.12,826.23 248.24,827.33 246.15,827.41C242.64,827.54 240.07,827.44 238.42,827.1C237.26,826.87 236.42,825.86 236.41,824.68L236.33,815.12C236.32,814.13 236.99,813.28 237.95,813.06C240.68,812.43 243.91,812.39 247.63,812.93C248.03,812.98 248.35,813.3 248.41,813.7L248.67,815.41C248.73,815.82 249.09,816.12 249.5,816.12L254.1,816.08C254.58,816.07 254.97,815.67 254.95,815.19C254.78,809.74 254.65,805.78 247.99,805.76C241.99,805.74 237.58,806.08 234.76,806.78C231.02,807.7 230.56,810.74 230.42,814.25C230.35,816.12 230.33,819.11 230.36,823.21C230.39,827.08 230.16,832.33 234.63,833.27C238.48,834.08 243.18,834.37 248.73,834.14C255.37,833.86 255.4,829.46 255.14,824C255.12,823.49 254.69,823.08 254.18,823.09Z" style="fill:none;"/>
            </g>
            <g transform="matrix(0.724949,0,0,0.724949,98.177696,95.451056)">
                <path d="M321.18,805.45C317.29,805.18 314,808.27 314.03,812.16L314.18,827.91C314.21,831.74 317.46,834.75 321.28,834.51L334.41,833.66C337.95,833.43 340.68,830.48 340.65,826.94L340.53,812.98C340.49,809.5 337.8,806.63 334.33,806.38L321.18,805.45Z" style="fill:none;"/>
            </g>
            <g transform="matrix(0.724949,0,0,0.724949,98.177696,95.451056)">
                <path d="M270.64,828.58C274.26,828.59 276.21,828.6 276.52,828.61C276.87,828.62 277.18,828.86 277.28,829.19L278.28,832.68C278.45,833.28 279,833.69 279.63,833.68L285.08,833.63C285.56,833.63 285.89,833.14 285.71,832.69L275.17,806.62C275.11,806.47 274.97,806.37 274.81,806.36C273.68,806.28 272.31,806.24 270.72,806.23C269.13,806.23 267.77,806.26 266.64,806.33C266.47,806.34 266.33,806.44 266.27,806.59L255.55,832.58C255.36,833.03 255.69,833.52 256.17,833.53L261.62,833.62C262.25,833.63 262.8,833.22 262.98,832.63L264,829.14C264.11,828.81 264.41,828.58 264.76,828.57C265.07,828.56 267.03,828.57 270.64,828.58Z" style="fill:none;"/>
            </g>
            <g transform="matrix(0.724949,0,0,0.724949,98.177696,95.451056)">
                <path d="M206.7,807.68C203.47,807.89 200.96,810.58 200.99,813.82L201.11,826.45C201.14,829.63 203.61,832.25 206.78,832.48L220.9,833.47C224.45,833.73 227.46,830.89 227.43,827.33L227.3,812.79C227.27,809.29 224.3,806.53 220.8,806.76L206.7,807.68Z" style="fill:none;"/>
            </g>
            <g transform="matrix(0.724949,0,0,0.724949,98.177696,95.451056)">
                <path d="M343.54,820.06L343.54,832.28C343.54,832.57 343.78,832.8 344.06,832.78L364.46,831.75C364.78,831.74 365.04,831.47 365.04,831.15L365,826.7C364.99,826.39 364.74,826.14 364.43,826.14L349.68,826.28C349.44,826.28 349.24,826.08 349.23,825.84L349.21,822.97C349.2,822.69 349.43,822.46 349.72,822.45L363.49,822.32C363.81,822.32 364.08,822.08 364.11,821.76C364.15,821.34 364.17,820.78 364.17,820.07C364.17,819.36 364.15,818.8 364.11,818.38C364.08,818.06 363.82,817.82 363.49,817.82L349.72,817.67C349.44,817.66 349.21,817.43 349.21,817.15L349.24,814.28C349.24,814.03 349.44,813.84 349.69,813.84L364.44,814C364.75,814 365,813.75 365.01,813.44L365.06,808.99C365.06,808.67 364.8,808.4 364.48,808.39L344.08,807.33C343.79,807.32 343.56,807.54 343.55,807.83C343.55,808.07 343.55,812.14 343.54,820.06Z" style="fill:none;"/>
            </g>
            <g transform="matrix(0.724949,0,0,0.724949,98.177696,95.451056)">
                <path d="M365.98,824.85C366.05,827.99 366.39,831.46 369.77,831.78C373.48,832.14 378.46,831.74 383.75,831.47C390.6,831.12 390.74,826.68 390.29,821.3C390.19,820.11 389.42,819.08 388.31,818.65C387.06,818.17 385.78,817.89 384.47,817.82C380.98,817.62 377.53,817.39 374.14,817.14C373.06,817.06 372.36,816.6 372.03,815.75C371.71,814.9 372.33,813.97 373.28,813.88C375.97,813.65 379.08,813.73 382.62,814.13C383.08,814.18 383.49,814.43 383.74,814.81C384.71,816.31 386.55,816.86 389.24,816.45C389.56,816.4 389.8,816.14 389.81,815.82C390.03,810.74 387.43,809.37 382.62,808.84C377.85,808.31 373.64,808.15 369.99,808.36C368.77,808.43 367.7,809.17 367.21,810.28C365.9,813.25 364.93,821.6 370.14,822.16C372.34,822.39 376.7,822.56 383.23,822.65C384.16,822.67 384.93,823.38 385.03,824.31L385.04,824.37C385.14,825.28 384.46,826.1 383.54,826.17C379.23,826.51 375.73,826.59 373.06,826.41C372.46,826.37 372.06,825.74 371.86,824.52C371.81,824.21 371.55,823.98 371.24,823.99L366.78,824.03C366.33,824.04 365.97,824.4 365.98,824.85Z" style="fill:none;"/>
            </g>
            <g transform="matrix(0.724949,0,0,0.724949,98.177696,95.451056)">
                <path d="M179.85,829.61C179.86,829.93 180.11,830.2 180.43,830.22L199.52,831.57C199.9,831.6 200.21,831.29 200.18,830.91L199.89,826.25C199.87,825.93 199.61,825.68 199.29,825.67L186.54,825.27C186.21,825.26 185.95,824.99 185.94,824.65L185.82,810.41C185.81,810.05 185.51,809.77 185.16,809.79L180.26,810.11C179.94,810.13 179.68,810.41 179.69,810.74L179.85,829.61Z" style="fill:none;"/>
            </g>
            <g transform="matrix(0.724949,0,0,0.724949,98.177696,95.451056)">
                <path d="M334.642,815.838C334.64,814.07 333.2,812.64 331.437,812.643L323.177,812.658C321.41,812.66 319.98,814.1 319.982,815.863L319.997,824.123C320,825.89 321.44,827.32 323.202,827.318L331.462,827.303C333.23,827.3 334.66,825.86 334.657,824.098L334.642,815.838Z" style="fill:none;"/>
            </g>
            <g transform="matrix(0.724949,0,0,0.724949,98.177696,95.451056)">
                <path d="M266.78,822.2C266.68,822.47 266.89,822.77 267.18,822.76L274.23,822.65C274.52,822.65 274.72,822.35 274.61,822.07L270.95,813.04C270.8,812.69 270.3,812.69 270.16,813.05L266.78,822.2Z" style="fill:none;"/>
            </g>
            <g transform="matrix(0.724949,0,0,0.724949,98.177696,95.451056)">
                <path d="M221.607,816.425C221.6,814.7 220.2,813.3 218.466,813.306L210.046,813.335C208.32,813.34 206.92,814.75 206.927,816.476L206.952,823.676C206.96,825.4 208.36,826.8 210.093,826.795L218.513,826.766C220.24,826.76 221.64,825.35 221.632,823.625L221.607,816.425Z" style="fill:none;"/>
            </g>
            <g transform="matrix(0.724949,0,0,0.724949,98.177696,95.451056)">
                <path d="M252.5,583.3C253.33,583.77 254.36,583.16 254.35,582.2L254.14,559.74C254.14,559.39 254.33,559.06 254.63,558.89L269.52,550.29C270.05,549.99 270.7,550 271.21,550.33C277.76,554.53 281.43,556.83 282.22,557.23C285.39,558.85 288.34,557.92 291.84,555.83C295.35,553.74 298.35,551.86 300.84,550.21C301.77,549.59 302.99,549.59 303.92,550.21L316.63,558.63C316.88,558.8 317.04,559.08 317.05,559.39L317.77,582.59C317.79,583.39 318.66,583.88 319.36,583.48L329.12,577.85C329.88,577.41 330.82,577.44 331.56,577.92L344.03,586.19C344.39,586.43 344.61,586.84 344.62,587.27L344.73,599.76C344.74,600.15 344.53,600.51 344.19,600.7C335.08,605.9 328.23,609.92 323.63,612.77C321.9,613.84 319.71,614.82 318.12,615.58C315.02,617.06 314.57,619.69 317.72,621.34C319.93,622.5 328.66,627.52 343.9,636.4C344.27,636.62 344.49,637.01 344.49,637.43L344.61,649.76C344.61,650.34 344.31,650.87 343.81,651.16L331.58,658.22C331.06,658.52 330.42,658.53 329.89,658.23L286.07,633.6C285.59,633.33 285.01,633.34 284.54,633.61L241.93,658.21C241.72,658.33 241.46,658.33 241.24,658.21L227.59,650.54C227.09,650.26 226.79,649.74 226.78,649.17L226.67,637.31C226.66,636.72 226.98,636.18 227.49,635.88L255.46,619.73C255.67,619.6 255.82,619.39 255.85,619.14C256.26,615.95 253.44,615.31 250.67,613.96C249.44,613.37 248.41,612.81 247.57,612.28C240.36,607.76 233.8,603.83 227.91,600.5C227.35,600.18 227,599.59 226.99,598.94L226.89,587.45C226.88,587.1 227.06,586.78 227.35,586.59L240.56,578.15C241.36,577.64 242.37,577.61 243.2,578.07L252.5,583.3Z" style="fill-rule:nonzero;"/>
            </g>
            <g transform="matrix(0.724949,0,0,0.724949,98.177696,95.451056)">
                <path d="M265.97,675.93C266.22,675.9 266.44,676.1 266.44,676.36L267.31,771.17C267.32,771.75 267.8,772.22 268.39,772.21C291.1,771.78 313.54,772.29 335.71,773.75C335.98,773.77 336.18,773.99 336.19,774.26L336.38,795.33C336.39,795.78 335.96,796.11 335.52,795.99C333.61,795.46 331.74,795.55 329.91,796.24C329.5,796.39 329.05,796.37 328.66,796.18C327.73,795.72 326.57,795.39 325.17,795.19C319.36,794.36 317.83,797.98 317.87,802.87C317.87,803.4 317.43,803.84 316.9,803.83C313.47,803.81 311.02,804.03 308.7,803.65C304.15,802.9 299.55,802.72 294.9,803.11C287.45,803.73 280.86,803.44 272.32,803.45C264.23,803.47 256.88,803.98 247.5,803.49C244.13,803.32 240.48,803.46 236.53,803.92C236.05,803.97 235.64,803.61 235.63,803.13L234.5,679.45C234.49,679.04 234.8,678.7 235.21,678.66L265.97,675.93Z" style="fill-rule:nonzero;"/>
            </g>
            <g transform="matrix(0.724949,0,0,0.724949,98.177696,95.451056)">
                <path d="M230.53,758.46C230.68,758.44 230.82,758.56 230.83,758.72C231.15,766.49 231.24,773.08 231.1,778.49C230.84,787.9 228.72,797.5 221.13,803.62C220.44,804.17 219.59,804.47 218.71,804.46C213.54,804.41 208.78,804.81 204.41,805.66C204.12,805.71 203.85,805.8 203.58,805.93C201.62,806.84 200.15,808.38 199.18,810.56C199.04,810.86 198.76,811.07 198.43,811.09L189.02,811.93C188.67,811.96 188.37,811.71 188.34,811.36L188.13,809.02C188.05,808.17 187.4,807.49 186.55,807.38C185.19,807.21 183.15,807.24 180.42,807.49C177.6,807.74 177.15,809.87 177.23,812.32C177.24,812.74 176.93,813.1 176.51,813.14C164.58,814.2 153.41,815.01 143.01,815.57C126.67,816.44 112.35,815.5 110.93,795.24C109.98,781.68 109.82,764.73 110.47,744.39C110.67,738.01 111.25,733.18 112.21,729.91C115.78,717.76 124.3,708.69 135.4,703.45C155.59,693.93 176.11,685.96 197.74,681.79C201.68,681.03 205.65,680.8 209.66,681.09C222.54,682.04 226.67,691.46 227.93,702.76C228.62,708.95 228.91,715.61 228.8,722.74C228.79,722.84 228.72,722.93 228.62,722.94L199.53,727.35C199.13,727.41 198.77,727.11 198.76,726.71C198.69,723.12 199.05,715.08 194.51,714.28C187.88,713.12 180.02,715.05 173.44,716.67C167.23,718.2 161.1,720 155.07,722.08C151.3,723.38 148.05,724.87 145.31,726.56C139.36,730.22 138,735.67 137.47,742.72C136.64,753.93 136.74,765.61 137.79,777.75C138.78,789.22 147.78,788.45 156.27,787.32C165.72,786.06 175.2,784.7 184.73,783.24C190.58,782.34 198.31,780.9 200,774.27C200.79,771.2 201.08,767.04 200.87,761.81C200.85,761.41 201.15,761.07 201.54,761.04L230.53,758.46Z" style="fill-rule:nonzero;"/>
            </g>
            <g transform="matrix(0.724949,0,0,0.724949,98.177696,95.451056)">
                <path d="M457.54,751.55C457.53,751.84 457.23,752.03 456.96,751.93L429.6,741.66C429.45,741.6 429.35,741.45 429.36,741.29C429.4,739.76 429.31,737.9 429.1,735.69C428.61,730.54 426.29,728.73 421.42,726.18C410.53,720.49 397.23,717.13 385.12,714.64C383.16,714.24 380.87,713.98 378.26,713.86C371.53,713.56 369.36,718.06 368.48,723.75C366.66,735.59 366.8,748.56 366.83,758.75C366.86,767.34 366.96,777.83 376.08,781.21C379.36,782.42 383.17,783.35 387.51,783.98C396.46,785.29 405.46,786.56 414.5,787.8C418.56,788.36 422.28,788.32 425.67,787.68C430.7,786.73 430.35,777.62 430.42,773.19C430.43,772.84 430.76,772.6 431.09,772.69L458.46,779.94C458.8,780.03 459.04,780.32 459.06,780.67C459.69,789.22 459.46,796.29 458.37,801.87C456.35,812.25 448.84,815.13 439.25,815.93C436.51,816.16 434.32,816.24 432.69,816.19C420.74,815.8 407.45,814.79 392.83,813.17C392.41,813.12 392.06,812.82 391.95,812.4C390.58,807.07 385.79,806.65 380.58,806.1C376.75,805.69 371.32,805.01 367.78,806.49C367.42,806.63 367.03,806.65 366.66,806.54L365.06,806.03C364.35,805.8 363.62,805.69 362.88,805.68C361.91,805.67 358.56,805.54 352.84,805.27C351.79,805.22 350.55,804.57 349.13,803.34C340.59,795.93 339.1,785.21 338.93,774.77C338.72,761.79 338.73,747.12 338.95,730.75C339.1,719.47 339.51,710.63 340.19,704.23C341.31,693.76 345.09,683.79 357.02,682.29C362.32,681.62 369.51,682.26 374.76,683.36C385.05,685.53 395.78,688.5 406.95,692.29C414.42,694.83 421.78,698.38 428.59,701.23C432.36,702.81 435.17,704.18 437.02,705.33C446.46,711.21 454.79,720.67 456.67,732.4C457.54,737.9 457.83,744.28 457.54,751.55Z" style="fill-rule:nonzero;"/>
            </g>
            <g transform="matrix(0.724949,0,0,0.724949,98.177696,95.451056)">
                <path d="M326.45,801.86C325.23,801.35 324.54,801.07 324.4,801.04C324.04,800.95 323.66,801.11 323.48,801.44C322.9,802.47 322.02,802.84 320.84,802.56C320.48,802.47 320.23,802.15 320.23,801.78C320.13,795.57 324.34,797.07 328.01,798.61C329.23,799.12 329.91,799.39 330.06,799.43C330.42,799.52 330.8,799.36 330.98,799.03C331.56,798 332.44,797.62 333.62,797.91C333.97,798 334.22,798.32 334.23,798.68C334.33,804.89 330.12,803.4 326.45,801.86Z" style="fill-rule:nonzero;"/>
            </g>
            <g transform="matrix(0.724949,0,0,0.724949,98.177696,95.451056)">
                <path d="M305.4,823.72C305.22,823.05 305.72,822.4 306.41,822.39L310.66,822.35C311.39,822.34 311.97,822.96 311.92,823.69C311.89,824.22 311.81,825.49 311.68,827.5C311.28,834.11 305,833.59 299.73,833.5C299.28,833.49 298.91,833.86 298.92,834.31L298.92,834.66C298.92,835.02 299.21,835.31 299.57,835.32L302.11,835.4C302.76,835.42 303.27,835.95 303.28,836.6L303.34,843.02C303.35,843.81 302.72,844.45 301.93,844.46L297.7,844.49C297.26,844.5 296.91,844.14 296.93,843.7L296.98,842.18C296.99,841.79 297.34,841.5 297.72,841.56C298.9,841.73 299.67,841.55 300.02,841.04C300.86,839.82 299.9,838.18 298.51,838.44C298.13,838.51 297.79,838.5 297.5,838.42C297.16,838.33 296.93,838.01 296.94,837.66L297.06,834.04C297.07,833.72 296.8,833.47 296.48,833.51C285.08,834.84 286.79,825.41 286.89,817.7C286.95,812.89 286.08,805.71 292.93,805.59C298.64,805.49 303.62,805.13 307.41,805.84C311.07,806.52 311.37,810.9 311.46,814.71C311.47,815.38 310.92,815.92 310.25,815.9L306.05,815.76C305.46,815.74 305.01,815.22 305.07,814.63C305.15,813.95 304.97,813.4 304.52,812.99C304.31,812.8 304.06,812.65 303.79,812.56C303.18,812.36 300.83,812.27 296.76,812.29C295.54,812.3 294.58,812.5 293.87,812.91C293.56,813.09 293.34,813.4 293.28,813.75C292.53,817.64 292.47,821.33 293.12,824.82C293.29,825.72 294.03,826.4 294.94,826.48C297.28,826.69 306.52,827.82 305.4,823.72Z" style="fill-rule:nonzero;"/>
            </g>
            <g transform="matrix(0.724949,0,0,0.724949,98.177696,95.451056)">
                <path d="M254.18,823.09C254.69,823.08 255.12,823.49 255.14,824C255.4,829.46 255.37,833.86 248.73,834.14C243.18,834.37 238.48,834.08 234.63,833.27C230.16,832.33 230.39,827.08 230.36,823.21C230.33,819.11 230.35,816.12 230.42,814.25C230.56,810.74 231.02,807.7 234.76,806.78C237.58,806.08 241.99,805.74 247.99,805.76C254.65,805.78 254.78,809.74 254.95,815.19C254.97,815.67 254.58,816.07 254.1,816.08L249.5,816.12C249.09,816.12 248.73,815.82 248.67,815.41L248.41,813.7C248.35,813.3 248.03,812.98 247.63,812.93C243.91,812.39 240.68,812.43 237.95,813.06C236.99,813.28 236.32,814.13 236.33,815.12L236.41,824.68C236.42,825.86 237.26,826.87 238.42,827.1C240.07,827.44 242.64,827.54 246.15,827.41C248.24,827.33 249.12,826.23 248.8,824.12C248.72,823.6 249.12,823.14 249.64,823.13L254.18,823.09Z" style="fill-rule:nonzero;"/>
            </g>
            <g transform="matrix(0.724949,0,0,0.724949,98.177696,95.451056)">
                <path d="M321.18,805.45L334.33,806.38C337.8,806.63 340.49,809.5 340.53,812.98L340.65,826.94C340.68,830.48 337.95,833.43 334.41,833.66L321.28,834.51C317.46,834.75 314.21,831.74 314.18,827.91L314.03,812.16C314,808.27 317.29,805.18 321.18,805.45ZM334.642,815.838C334.64,814.07 333.2,812.64 331.437,812.643L323.177,812.658C321.41,812.66 319.98,814.1 319.982,815.863L319.997,824.123C320,825.89 321.44,827.32 323.202,827.318L331.462,827.303C333.23,827.3 334.66,825.86 334.657,824.098L334.642,815.838Z" style="fill-rule:nonzero;"/>
            </g>
            <g transform="matrix(0.724949,0,0,0.724949,98.177696,95.451056)">
                <path d="M270.72,806.23C272.31,806.24 273.68,806.28 274.81,806.36C274.97,806.37 275.11,806.47 275.17,806.62L285.71,832.69C285.89,833.14 285.56,833.63 285.08,833.63L279.63,833.68C279,833.69 278.45,833.28 278.28,832.68L277.28,829.19C277.18,828.86 276.87,828.62 276.52,828.61C276.21,828.6 274.26,828.59 270.64,828.58C267.03,828.57 265.07,828.56 264.76,828.57C264.41,828.58 264.11,828.81 264,829.14L262.98,832.63C262.8,833.22 262.25,833.63 261.62,833.62L256.17,833.53C255.69,833.52 255.36,833.03 255.55,832.58L266.27,806.59C266.33,806.44 266.47,806.34 266.64,806.33C267.77,806.26 269.13,806.23 270.72,806.23ZM266.78,822.2C266.68,822.47 266.89,822.77 267.18,822.76L274.23,822.65C274.52,822.65 274.72,822.35 274.61,822.07L270.95,813.04C270.8,812.69 270.3,812.69 270.16,813.05L266.78,822.2Z" style="fill-rule:nonzero;"/>
            </g>
            <g transform="matrix(0.724949,0,0,0.724949,98.177696,95.451056)">
                <path d="M206.7,807.68L220.8,806.76C224.3,806.53 227.27,809.29 227.3,812.79L227.43,827.33C227.46,830.89 224.45,833.73 220.9,833.47L206.78,832.48C203.61,832.25 201.14,829.63 201.11,826.45L200.99,813.82C200.96,810.58 203.47,807.89 206.7,807.68ZM221.607,816.425C221.6,814.7 220.2,813.3 218.466,813.306L210.046,813.335C208.32,813.34 206.92,814.75 206.927,816.476L206.952,823.676C206.96,825.4 208.36,826.8 210.093,826.795L218.513,826.766C220.24,826.76 221.64,825.35 221.632,823.625L221.607,816.425Z" style="fill-rule:nonzero;"/>
            </g>
            <g transform="matrix(0.724949,0,0,0.724949,98.177696,95.451056)">
                <path d="M364.17,820.07C364.17,820.78 364.15,821.34 364.11,821.76C364.08,822.08 363.81,822.32 363.49,822.32L349.72,822.45C349.43,822.46 349.2,822.69 349.21,822.97L349.23,825.84C349.24,826.08 349.44,826.28 349.68,826.28L364.43,826.14C364.74,826.14 364.99,826.39 365,826.7L365.04,831.15C365.04,831.47 364.78,831.74 364.46,831.75L344.06,832.78C343.78,832.8 343.54,832.57 343.54,832.28L343.54,820.06C343.55,812.14 343.55,808.07 343.55,807.83C343.56,807.54 343.79,807.32 344.08,807.33L364.48,808.39C364.8,808.4 365.06,808.67 365.06,808.99L365.01,813.44C365,813.75 364.75,814 364.44,814L349.69,813.84C349.44,813.84 349.24,814.03 349.24,814.28L349.21,817.15C349.21,817.43 349.44,817.66 349.72,817.67L363.49,817.82C363.82,817.82 364.08,818.06 364.11,818.38C364.15,818.8 364.17,819.36 364.17,820.07Z" style="fill-rule:nonzero;"/>
            </g>
            <g transform="matrix(0.724949,0,0,0.724949,98.177696,95.451056)">
                <path d="M366.78,824.03L371.24,823.99C371.55,823.98 371.81,824.21 371.86,824.52C372.06,825.74 372.46,826.37 373.06,826.41C375.73,826.59 379.23,826.51 383.54,826.17C384.46,826.1 385.14,825.28 385.04,824.37L385.03,824.31C384.93,823.38 384.16,822.67 383.23,822.65C376.7,822.56 372.34,822.39 370.14,822.16C364.93,821.6 365.9,813.25 367.21,810.28C367.7,809.17 368.77,808.43 369.99,808.36C373.64,808.15 377.85,808.31 382.62,808.84C387.43,809.37 390.03,810.74 389.81,815.82C389.8,816.14 389.56,816.4 389.24,816.45C386.55,816.86 384.71,816.31 383.74,814.81C383.49,814.43 383.08,814.18 382.62,814.13C379.08,813.73 375.97,813.65 373.28,813.88C372.33,813.97 371.71,814.9 372.03,815.75C372.36,816.6 373.06,817.06 374.14,817.14C377.53,817.39 380.98,817.62 384.47,817.82C385.78,817.89 387.06,818.17 388.31,818.65C389.42,819.08 390.19,820.11 390.29,821.3C390.74,826.68 390.6,831.12 383.75,831.47C378.46,831.74 373.48,832.14 369.77,831.78C366.39,831.46 366.05,827.99 365.98,824.85C365.97,824.4 366.33,824.04 366.78,824.03Z" style="fill-rule:nonzero;"/>
            </g>
            <g transform="matrix(0.724949,0,0,0.724949,98.177696,95.451056)">
                <path d="M179.85,829.61L179.69,810.74C179.68,810.41 179.94,810.13 180.26,810.11L185.16,809.79C185.51,809.77 185.81,810.05 185.82,810.41L185.94,824.65C185.95,824.99 186.21,825.26 186.54,825.27L199.29,825.67C199.61,825.68 199.87,825.93 199.89,826.25L200.18,830.91C200.21,831.29 199.9,831.6 199.52,831.57L180.43,830.22C180.11,830.2 179.86,829.93 179.85,829.61Z" style="fill-rule:nonzero;"/>
            </g>
        </g>
    </g>
</svg>
